<mxfile host="app.diagrams.net" modified="2023-12-28T18:23:07.943Z" agent="Mozilla/5.0 (Macintosh; Intel Mac OS X 10_15_7) AppleWebKit/605.1.15 (KHTML, like Gecko) Version/17.2.1 Safari/605.1.15" version="22.1.15" etag="LQk9JAtqEFQlcmAWTFGA" type="github">
  <diagram name="Page-1" id="jqD2k3h99YXbauizdquI">
    <mxGraphModel>
      <root>
        <mxCell id="0" />
        <mxCell id="1" parent="0" />
      </root>
    </mxGraphModel>
  </diagram>
</mxfile>
